<?xml version="1.0" encoding="utf-8"?>
<!-- Generator: Adobe Illustrator 24.0.1, SVG Export Plug-In . SVG Version: 6.00 Build 0)  -->
<svg version="1.1" id="Layer_1" xmlns="http://www.w3.org/2000/svg" xmlns:xlink="http://www.w3.org/1999/xlink" x="0px" y="0px"
	 viewBox="0 0 562 562" style="enable-background:new 0 0 562 562;" xml:space="preserve">
<style type="text/css">
	.st0{fill:#E9D22A;}
	.st1{fill:#DD714A;}
</style>
<rect x="0.11" y="0.23" class="st0" width="561.89" height="561.89"/>
<g>
	<path class="st1" d="M100.3,251.26h-8.66v-19.98h59.95c6.79,0,9.72,2.93,9.72,9.72v18.38H140v-5.19c0-1.87-1.07-2.93-2.93-2.93
		h-12.92v17.32h27.18v19.98h-27.18v15.05c0,1.87,1.07,2.93,2.93,2.93h13.19c1.86,0,2.93-1.06,2.93-2.93v-5.19h21.31v18.38
		c0,6.79-2.93,9.72-9.72,9.72h-44.76c-6.79,0-9.72-2.93-9.72-9.72V251.26z"/>
	<path class="st1" d="M219.52,229.68c11.32,0,36.5,4.4,36.5,22.25v12.52H234.7v-5.19c0-5.46-8.53-7.59-14.65-7.59
		c-13.85,0-25.04,8.93-25.04,26.24c0,15.59,11.59,28.24,25.58,28.24c16.65,0,27.18-12.12,27.18-12.12l12.12,17.05
		c0,0-14.39,17.05-39.7,17.05c-30.11,0-49.95-21.58-49.95-50.22C170.23,250.59,191.14,229.68,219.52,229.68z"/>
	<path class="st1" d="M275.33,254.19c0-1.87-1.07-2.93-2.93-2.93h-5.73v-19.98h22.78c6.79,0,9.72,2.93,9.72,9.72v28.37h32.24V241
		c0-6.79,2.93-9.72,9.72-9.72h22.78v19.98h-5.73c-1.87,0-2.93,1.06-2.93,2.93v72.33h-23.85v-37.3h-32.24v37.3h-23.85V254.19z"/>
	<path class="st1" d="M420.65,229.68c28.77,0,49.82,21.31,49.82,48.62c0,27.97-21.05,49.82-49.82,49.82
		c-28.77,0-49.82-21.85-49.82-49.82C370.83,250.99,391.88,229.68,420.65,229.68z"/>
</g>
</svg>
