<?xml version="1.0" encoding="utf-8"?>
<!-- Generator: Adobe Illustrator 24.0.1, SVG Export Plug-In . SVG Version: 6.00 Build 0)  -->
<svg version="1.1" id="Layer_1" xmlns="http://www.w3.org/2000/svg" xmlns:xlink="http://www.w3.org/1999/xlink" x="0px" y="0px"
	 viewBox="0 0 1000 562" style="enable-background:new 0 0 1000 562;" xml:space="preserve">
<style type="text/css">
	.st0{fill:#26225D;}
	.st1{fill:#E9D22A;}
</style>
<rect y="0.32" class="st0" width="1000" height="562.5"/>
<g>
	<path class="st1" d="M175.17,241.14H162.5v-29.23h87.69c9.94,0,14.22,4.29,14.22,14.22v26.89h-31.18v-7.6
		c0-2.73-1.56-4.29-4.29-4.29h-18.9v25.33h39.75v29.23h-39.75v22.02c0,2.73,1.56,4.29,4.29,4.29h19.29c2.73,0,4.29-1.56,4.29-4.29
		v-7.6h31.18v26.89c0,9.94-4.29,14.22-14.22,14.22h-65.47c-9.94,0-14.23-4.29-14.23-14.22V241.14z"/>
	<path class="st1" d="M349.56,209.57c16.56,0,53.39,6.43,53.39,32.54v18.32h-31.18v-7.6c0-7.99-12.47-11.11-21.43-11.11
		c-20.27,0-36.63,13.06-36.63,38.39c0,22.8,16.95,41.31,37.41,41.31c24.36,0,39.75-17.73,39.75-17.73l17.73,24.94
		c0,0-21.05,24.94-58.07,24.94c-44.04,0-73.07-31.57-73.07-73.46C277.46,240.16,308.05,209.57,349.56,209.57z"/>
	<path class="st1" d="M431.19,245.42c0-2.73-1.56-4.29-4.29-4.29h-8.38v-29.23h33.32c9.94,0,14.23,4.29,14.23,14.22v41.5h47.16
		v-41.5c0-9.94,4.29-14.22,14.23-14.22h33.32v29.23h-8.38c-2.73,0-4.29,1.56-4.29,4.29v105.81h-34.88v-54.56h-47.16v54.56h-34.88
		V245.42z"/>
	<path class="st1" d="M819.28,317.57c10.52,0,18.22,7.79,18.22,17.78c0,10.23-7.7,18.22-18.22,18.22s-18.22-7.99-18.22-18.22
		C801.06,325.36,808.75,317.57,819.28,317.57z"/>
	<path class="st1" d="M758.85,281.57c21.04,0,36.44,15.59,36.44,35.56c0,20.46-15.39,36.44-36.44,36.44
		c-21.04,0-36.44-15.98-36.44-36.44C722.41,297.16,737.81,281.57,758.85,281.57z"/>
	<path class="st1" d="M643.77,209.57c42.09,0,72.88,31.18,72.88,71.12c0,40.92-30.79,72.88-72.88,72.88
		c-42.09,0-72.88-31.96-72.88-72.88C570.89,240.75,601.68,209.57,643.77,209.57z"/>
</g>
</svg>
