<?xml version="1.0" encoding="utf-8"?>
<!-- Generator: Adobe Illustrator 24.0.1, SVG Export Plug-In . SVG Version: 6.00 Build 0)  -->
<svg version="1.1" id="Layer_1" xmlns="http://www.w3.org/2000/svg" xmlns:xlink="http://www.w3.org/1999/xlink" x="0px" y="0px"
	 viewBox="0 0 562 562" style="enable-background:new 0 0 562 562;" xml:space="preserve">
<style type="text/css">
	.st0{fill:#26225D;}
	.st1{fill:#E9D22A;}
</style>
<rect x="-0.16" y="-0.32" class="st0" width="562.32" height="562.32"/>
<g>
	<path class="st1" d="M100.1,250.9h-8.66v-20h59.99c6.8,0,9.73,2.93,9.73,9.73v18.4h-21.33v-5.2c0-1.87-1.07-2.93-2.93-2.93h-12.93
		v17.33h27.2v20h-27.2v15.06c0,1.87,1.07,2.93,2.93,2.93h13.2c1.87,0,2.93-1.07,2.93-2.93v-5.2h21.33v18.4
		c0,6.8-2.93,9.73-9.73,9.73h-44.79c-6.8,0-9.73-2.93-9.73-9.73V250.9z"/>
	<path class="st1" d="M219.41,229.31c11.33,0,36.53,4.4,36.53,22.26v12.53h-21.33v-5.2c0-5.47-8.53-7.6-14.66-7.6
		c-13.86,0-25.06,8.93-25.06,26.26c0,15.6,11.6,28.26,25.6,28.26c16.66,0,27.2-12.13,27.2-12.13l12.13,17.06
		c0,0-14.4,17.06-39.73,17.06c-30.13,0-49.99-21.6-49.99-50.26C170.09,250.24,191.02,229.31,219.41,229.31z"/>
	<path class="st1" d="M275.26,253.84c0-1.87-1.07-2.93-2.93-2.93h-5.73v-20h22.8c6.8,0,9.73,2.93,9.73,9.73v28.4h32.26v-28.4
		c0-6.8,2.93-9.73,9.73-9.73h22.8v20h-5.73c-1.87,0-2.93,1.07-2.93,2.93v72.39h-23.86V288.9h-32.26v37.33h-23.86V253.84z"/>
	<path class="st1" d="M420.7,229.31c28.8,0,49.86,21.33,49.86,48.66c0,27.99-21.06,49.86-49.86,49.86
		c-28.8,0-49.86-21.86-49.86-49.86C370.84,250.64,391.91,229.31,420.7,229.31z"/>
</g>
</svg>
