<?xml version="1.0" encoding="utf-8"?>
<!-- Generator: Adobe Illustrator 24.0.1, SVG Export Plug-In . SVG Version: 6.00 Build 0)  -->
<svg version="1.1" id="Layer_1" xmlns="http://www.w3.org/2000/svg" xmlns:xlink="http://www.w3.org/1999/xlink" x="0px" y="0px"
	 viewBox="0 0 550 556" style="enable-background:new 0 0 550 556;" xml:space="preserve">
<style type="text/css">
	.st0{fill:#E9D22A;}
	.st1{fill:#DD714A;}
	.st2{fill:#26225D;}
</style>
<g>
	<path class="st0" d="M550,277.79c0,160.62-118.98,278.11-271.43,278.11C122.42,555.9,0.46,438.41,0.46,277.79
		C0.46,117.17,122.42-0.32,278.57-0.32C431.02-0.32,550,117.17,550,277.79z"/>
	<path class="st1" d="M304.32,277.79c0,80.31-59.49,139.05-135.71,139.05c-78.08,0-139.06-58.74-139.06-139.05
		c0-80.31,60.98-139.06,139.06-139.06C244.83,138.73,304.32,197.48,304.32,277.79z"/>
	<path class="st2" d="M441.71,158.72c0,40.16-29.74,69.53-67.86,69.53c-39.04,0-69.53-29.37-69.53-69.53s30.49-69.53,69.53-69.53
		C411.96,89.19,441.71,118.56,441.71,158.72z"/>
</g>
</svg>
