<?xml version="1.0" encoding="utf-8"?>
<!-- Generator: Adobe Illustrator 24.0.1, SVG Export Plug-In . SVG Version: 6.00 Build 0)  -->
<svg version="1.1" id="Layer_1" xmlns="http://www.w3.org/2000/svg" xmlns:xlink="http://www.w3.org/1999/xlink" x="0px" y="0px"
	 viewBox="0 0 1000 562" style="enable-background:new 0 0 1000 562;" xml:space="preserve">
<style type="text/css">
	.st0{fill:#E9D22A;}
	.st1{fill:#DD714A;}
</style>
<rect x="-0.01" y="-0.32" class="st0" width="1000.01" height="562.51"/>
<g>
	<path class="st1" d="M175.16,240.5H162.5v-29.23h87.69c9.94,0,14.22,4.29,14.22,14.22v26.89h-31.18v-7.6
		c0-2.73-1.56-4.29-4.29-4.29h-18.9v25.33h39.75v29.23h-39.75v22.02c0,2.73,1.56,4.29,4.29,4.29h19.29c2.73,0,4.29-1.56,4.29-4.29
		v-7.6h31.18v26.89c0,9.94-4.29,14.22-14.22,14.22h-65.47c-9.94,0-14.23-4.29-14.23-14.22V240.5z"/>
	<path class="st1" d="M349.55,208.93c16.56,0,53.39,6.43,53.39,32.54v18.32h-31.18v-7.6c0-7.99-12.47-11.11-21.43-11.11
		c-20.27,0-36.63,13.06-36.63,38.39c0,22.8,16.95,41.31,37.41,41.31c24.36,0,39.75-17.73,39.75-17.73l17.73,24.94
		c0,0-21.05,24.94-58.07,24.94c-44.04,0-73.07-31.57-73.07-73.46C277.45,239.53,308.05,208.93,349.55,208.93z"/>
	<path class="st1" d="M431.19,244.79c0-2.73-1.56-4.29-4.29-4.29h-8.38v-29.23h33.32c9.94,0,14.23,4.29,14.23,14.22V267h47.16v-41.5
		c0-9.94,4.29-14.22,14.23-14.22h33.32v29.23h-8.38c-2.73,0-4.29,1.56-4.29,4.29V350.6h-34.88v-54.56h-47.16v54.56h-34.88V244.79z"
		/>
	<path class="st1" d="M819.28,316.94c10.52,0,18.22,7.79,18.22,17.78c0,10.23-7.7,18.22-18.22,18.22
		c-10.52,0-18.22-7.99-18.22-18.22C801.06,324.73,808.75,316.94,819.28,316.94z"/>
	<path class="st1" d="M758.85,280.93c21.04,0,36.44,15.59,36.44,35.56c0,20.46-15.39,36.44-36.44,36.44
		c-21.04,0-36.44-15.98-36.44-36.44C722.41,296.52,737.81,280.93,758.85,280.93z"/>
	<path class="st1" d="M643.77,208.93c42.09,0,72.88,31.18,72.88,71.12c0,40.92-30.79,72.88-72.88,72.88
		c-42.09,0-72.88-31.96-72.88-72.88C570.89,240.11,601.68,208.93,643.77,208.93z"/>
</g>
</svg>
