<?xml version="1.0" encoding="utf-8"?>
<!-- Generator: Adobe Illustrator 24.0.1, SVG Export Plug-In . SVG Version: 6.00 Build 0)  -->
<svg version="1.1" id="Layer_1" xmlns="http://www.w3.org/2000/svg" xmlns:xlink="http://www.w3.org/1999/xlink" x="0px" y="0px"
	 viewBox="0 0 1000 562" style="enable-background:new 0 0 1000 562;" xml:space="preserve">
<style type="text/css">
	.st0{fill:#DD714A;}
	.st1{fill:#26225D;}
</style>
<rect x="-0.01" y="-0.32" class="st0" width="999.68" height="562.32"/>
<g>
	<path class="st1" d="M175.1,240.42h-12.66V211.2h87.66c9.93,0,14.22,4.29,14.22,14.22v26.88h-31.17v-7.59
		c0-2.73-1.56-4.29-4.28-4.29h-18.9v25.32h39.74v29.22h-39.74v22.01c0,2.73,1.56,4.29,4.29,4.29h19.28c2.73,0,4.28-1.56,4.28-4.29
		v-7.59h31.17v26.88c0,9.93-4.28,14.22-14.22,14.22h-65.45c-9.93,0-14.22-4.29-14.22-14.22V240.42z"/>
	<path class="st1" d="M349.44,208.86c16.56,0,53.37,6.43,53.37,32.53v18.31h-31.17v-7.59c0-7.99-12.47-11.11-21.43-11.11
		c-20.26,0-36.62,13.05-36.62,38.37c0,22.79,16.95,41.3,37.4,41.3c24.35,0,39.74-17.73,39.74-17.73l17.73,24.93
		c0,0-21.04,24.93-58.05,24.93c-44.02,0-73.05-31.56-73.05-73.44C277.36,239.45,307.94,208.86,349.44,208.86z"/>
	<path class="st1" d="M431.04,244.71c0-2.73-1.56-4.29-4.29-4.29h-8.37V211.2h33.31c9.93,0,14.22,4.29,14.22,14.22v41.49h47.14
		v-41.49c0-9.93,4.29-14.22,14.22-14.22h33.31v29.22h-8.38c-2.73,0-4.29,1.56-4.29,4.29v105.77h-34.87v-54.54h-47.14v54.54h-34.87
		V244.71z"/>
	<path class="st1" d="M819,316.83c10.52,0,18.21,7.79,18.21,17.78c0,10.23-7.69,18.21-18.21,18.21s-18.21-7.99-18.21-18.21
		C800.79,324.62,808.48,316.83,819,316.83z"/>
	<path class="st1" d="M758.6,280.84c21.04,0,36.43,15.58,36.43,35.55c0,20.45-15.39,36.43-36.43,36.43
		c-21.04,0-36.43-15.97-36.43-36.43C722.17,296.42,737.56,280.84,758.6,280.84z"/>
	<path class="st1" d="M643.55,208.86c42.08,0,72.85,31.17,72.85,71.1c0,40.91-30.78,72.85-72.85,72.85
		c-42.08,0-72.85-31.95-72.85-72.85C570.7,240.03,601.48,208.86,643.55,208.86z"/>
</g>
</svg>
